<svg width="112" height="19" viewBox="0 0 112 19" fill="none" xmlns="http://www.w3.org/2000/svg">
<path d="M0.402762 6.07493V0.335631H3.38988V1.61103C4.4639 0.537006 5.77286 0 7.48458 0C11.5457 0 14.4321 3.02068 14.4321 7.38389C14.4321 11.8813 11.445 14.7678 7.04825 14.7678C3.85976 14.7678 1.47678 13.2574 0 10.371L3.28919 8.69285C4.06114 10.4717 5.16872 11.3443 6.81331 11.3443C8.65929 11.3443 9.76687 10.3374 10.0689 8.45791H6.30987V6.07493H10.0689C9.69974 4.36321 8.59216 3.457 6.94757 3.457C5.33654 3.457 4.12827 4.32964 3.55769 6.07493H0.402762Z" fill="white"/>
<path d="M21.514 8.45785V11.2772H22.823V14.365H15.6069V11.2772H17.2851V3.38982H15.6069V0.369141H22.823V3.38982H21.514V5.63854H25.7094V3.38982H24.4005V0.369141H31.6165V3.38982H29.9384V11.2772H31.6165V14.365H24.4005V11.2772H25.7094V8.45785H21.514Z" fill="white"/>
<path d="M56.957 11.2772H58.803V14.365H50.9156V11.2772H52.7616V3.38982H50.9492V6.17556H48.1299V0.369141H61.6223V6.17556H58.803V3.38982H56.9906V11.2772H56.957Z" fill="white"/>
<path d="M69.0062 2.34936C70.2816 1.00684 71.557 0.369141 73.2352 0.369141C76.6586 0.369141 79.2765 3.35626 79.2765 7.78659C79.2765 12.0491 76.8264 14.7677 73.3694 14.7677C71.557 14.7677 70.1138 14.0293 69.0062 12.519V15.8753H70.8522V18.9631H62.9648V15.8753H64.8108V3.38982H62.9648V0.369141H69.0062V2.34936ZM74.9469 7.51808C74.9469 4.90016 73.7722 3.45694 71.9598 3.45694C70.1809 3.45694 69.0062 4.90016 69.0062 7.51808C69.0062 10.0689 70.1473 11.5792 71.9598 11.5792C73.7722 11.5792 74.9469 10.1024 74.9469 7.51808Z" fill="white"/>
<path d="M85.4855 14.365H80.0819V11.2772H81.76V3.38982H79.9141V0.369141H87.8014V3.38982H85.9554V8.45785L90.4864 0.369141H96.0579V3.38982H94.3798V11.2772H96.2257V14.365H88.3384V11.2772H90.1844V6.24269L85.4855 14.365Z" fill="white"/>
<path d="M110.321 11.2772H111.999V14.365H104.783V11.2772H106.092V9.06199H104.851L101.729 14.365H97.4331V11.2772H99.1113L101.024 8.15578C100.085 7.58521 99.1784 6.24268 99.1784 4.79947C99.1784 1.9466 101.159 0.369141 104.481 0.369141H111.966V3.38982H110.288V11.2772H110.321ZM104.951 3.38982C103.81 3.38982 103.206 3.89327 103.206 4.76591C103.206 5.70568 103.743 6.24269 104.951 6.24269H106.092V3.38982H104.951Z" fill="white"/>
<path d="M42.6924 0.503451C41.3163 0.503451 40.8129 1.14115 40.8129 2.8193C40.8129 3.28919 40.4437 3.65838 39.9738 3.65838C39.5039 3.65838 39.1347 3.28919 39.1347 2.8193C39.1347 1.54391 39.4368 0.637706 39.9067 0.0335693C39.8731 0.0335693 39.8396 0.0335693 39.806 0.0335693C35.3757 0.0335693 32.355 2.92 32.355 7.38389C32.355 11.8813 35.3757 14.8013 39.806 14.8013C44.2028 14.8013 47.2234 11.8478 47.2234 7.41746C47.2234 3.99402 45.4782 1.51034 42.6924 0.503451ZM39.9402 4.02758C40.7793 4.02758 41.4506 4.69884 41.4506 5.53792C41.4506 6.377 40.7793 7.04826 39.9402 7.04826C39.1012 7.04826 38.4299 6.377 38.4299 5.53792C38.4299 4.69884 39.1012 4.02758 39.9402 4.02758ZM35.1743 5.53792C35.1743 4.69884 35.8455 4.02758 36.6846 4.02758C37.5237 4.02758 38.195 4.69884 38.195 5.53792C38.195 6.377 37.5237 7.04826 36.6846 7.04826C35.8455 7.04826 35.1743 6.377 35.1743 5.53792ZM36.7853 8.59217C36.7853 7.75309 37.4566 7.08182 38.2957 7.08182C39.1347 7.08182 39.806 7.75309 39.806 8.59217C39.806 9.43124 39.1347 10.1025 38.2957 10.1025C37.4901 10.1025 36.7853 9.43124 36.7853 8.59217ZM39.9402 13.1232C39.1012 13.1232 38.4299 12.4519 38.4299 11.6128C38.4299 10.7738 39.1012 10.1025 39.9402 10.1025C40.7793 10.1025 41.4506 10.7738 41.4506 11.6128C41.4506 12.4519 40.7793 13.1232 39.9402 13.1232ZM41.5848 10.1025C40.7458 10.1025 40.0745 9.43124 40.0745 8.59217C40.0745 7.75309 40.7458 7.08182 41.5848 7.08182C42.4239 7.08182 43.0952 7.75309 43.0952 8.59217C43.0952 9.43124 42.4239 10.1025 41.5848 10.1025ZM43.2294 7.04826C42.3904 7.04826 41.7191 6.377 41.7191 5.53792C41.7191 4.69884 42.3904 4.02758 43.2294 4.02758C44.0685 4.02758 44.7398 4.69884 44.7398 5.53792C44.7398 6.377 44.0685 7.04826 43.2294 7.04826Z" fill="#9B0034"/>
</svg>
