<svg width="22" height="24" viewBox="0 0 22 24" fill="none" xmlns="http://www.w3.org/2000/svg">
<path d="M14.5312 3.87514H18.3714L14.5312 0.0371094V3.87514Z" fill="#303233"/>
<path d="M2.29688 21.0843V8.59374H18.4063V5.28127H13.125V0H0V24H18.4063V21.0843H2.29688ZM9.20312 6.70313H4.64846V5.29688H9.20317V6.70313H9.20312Z" fill="#303233"/>
<path d="M7.69837 13.7846H7.40723C7.40788 14.1786 7.40854 14.6306 7.40854 14.8351C7.40854 15.0756 7.40966 15.5115 7.41079 15.8893C7.52999 15.8883 7.63949 15.8871 7.71524 15.8858C8.19848 15.8773 8.41476 15.3539 8.41476 14.839C8.41476 14.522 8.34496 13.7846 7.69837 13.7846Z" fill="#303233"/>
<path d="M12.984 13.731C12.373 13.731 11.876 14.228 11.876 14.839C11.876 15.45 12.373 15.947 12.984 15.947C13.5949 15.947 14.0919 15.4499 14.0919 14.839C14.0919 14.228 13.5949 13.731 12.984 13.731Z" fill="#303233"/>
<path d="M3.70312 9.99994V19.6779H22V9.99994H3.70312ZM7.71919 17.3062C7.39847 17.3062 6.0097 17.3023 6.0097 17.3023L5.99874 12.3784H7.69871C8.94849 12.3784 9.82135 13.3902 9.82135 14.839C9.8213 16.2391 8.9251 17.2851 7.71919 17.3062ZM12.9841 17.3532C11.5978 17.3532 10.4699 16.2254 10.4699 14.839C10.4699 13.4527 11.5978 12.3248 12.9841 12.3248C14.3705 12.3248 15.4984 13.4526 15.4984 14.839C15.4983 16.2253 14.3705 17.3532 12.9841 17.3532ZM20.0418 12.7546L19.2546 13.9198C19.0718 13.7963 18.8577 13.731 18.6356 13.731C18.0247 13.731 17.5277 14.228 17.5277 14.8389C17.5277 15.4499 18.0247 15.9469 18.6356 15.9469C18.8526 15.9469 19.1504 15.8124 19.2379 15.6869L20.3153 16.5907C20.2479 16.671 20.1746 16.7466 20.0973 16.8154C19.7023 17.1673 19.1968 17.3532 18.6356 17.3532C17.2493 17.3532 16.1214 16.2253 16.1214 14.8389C16.1214 13.4526 17.2493 12.3247 18.6356 12.3247C19.1394 12.3248 19.6256 12.4734 20.0418 12.7546Z" fill="#303233"/>
</svg>
