<svg width="24" height="24" viewBox="0 0 24 24" fill="none" xmlns="http://www.w3.org/2000/svg">
<path d="M12 0C5.37258 0 0 5.37258 0 12C0 18.6274 5.37258 24 12 24C18.6274 24 24 18.6274 24 12C24 5.37258 18.6274 0 12 0ZM11.25 6.75C11.25 6.33577 11.5858 6 12 6C12.4142 6 12.75 6.33577 12.75 6.75V10.875C12.75 11.2892 12.4142 11.625 12 11.625C11.5858 11.625 11.25 11.2892 11.25 10.875V6.75ZM8.0947 10.7197C8.38758 10.4267 8.86247 10.4267 9.15534 10.7197L12 13.5644L14.8447 10.7197C15.1376 10.4268 15.6125 10.4268 15.9053 10.7197C16.1983 11.0126 16.1983 11.4875 15.9053 11.7803L12.5303 15.1553C12.2375 15.4482 11.7626 15.4483 11.4697 15.1553L8.0947 11.7803C7.80178 11.4874 7.80178 11.0126 8.0947 10.7197ZM16.5 18H7.5C7.08581 18 6.75 17.6642 6.75 17.25C6.75 16.8358 7.08581 16.5 7.5 16.5H16.5C16.9142 16.5 17.25 16.8358 17.25 17.25C17.25 17.6642 16.9142 18 16.5 18Z" fill="#303233"/>
</svg>
