<svg width="16" height="16" viewBox="0 0 16 16" fill="none" xmlns="http://www.w3.org/2000/svg">
<path d="M8 0C3.5875 0 0 3.5875 0 8C0 12.4125 3.5875 16 8 16C12.4125 16 16 12.4125 16 8C16 3.5875 12.4125 0 8 0ZM12.3594 12.1125C9.62813 10.7437 6.325 10.6875 3.52813 11.9844C2.58125 10.925 2.00312 9.53125 2.00312 8C2.00312 4.69063 4.69375 2 8.00313 2C11.3125 2 14.0031 4.69063 14.0031 8C14 9.59062 13.3719 11.0375 12.3594 12.1125Z" fill="#CED6D9"/>
<path d="M10.1222 4.87811C11.294 6.04999 11.294 7.94999 10.1222 9.12186C8.95029 10.2937 7.05029 10.2937 5.87842 9.12186C4.70654 7.94999 4.70654 6.04999 5.87842 4.87811C7.05029 3.70624 8.95029 3.70624 10.1222 4.87811Z" fill="#CED6D9"/>
</svg>
