<svg width="48" height="48" viewBox="0 0 48 48" fill="none" xmlns="http://www.w3.org/2000/svg">
<path d="M23.8817 0C10.7094 0 0 10.7094 0 23.8817C0 37.0539 10.7094 47.7633 23.8817 47.7633C37.0539 47.7633 47.7633 37.0539 47.7633 23.8817C47.7633 10.7094 37.0539 0 23.8817 0ZM36.8953 36.1583C28.7419 32.0723 18.8814 31.9044 10.5322 35.7758C7.70556 32.6134 5.97974 28.4527 5.97974 23.8817C5.97974 14.0025 14.0118 5.97041 23.891 5.97041C33.7701 5.97041 41.8022 14.0025 41.8022 23.8817C41.7929 28.63 39.9178 32.9492 36.8953 36.1583Z" fill="#CED6D9"/>
<path d="M30.2158 14.5622C33.7141 18.0605 33.7141 23.7324 30.2158 27.2307C26.7175 30.729 21.0456 30.729 17.5473 27.2307C14.049 23.7324 14.049 18.0605 17.5473 14.5622C21.0456 11.0639 26.7175 11.0639 30.2158 14.5622Z" fill="#CED6D9"/>
</svg>
