<svg width="66" height="48" viewBox="0 0 66 48" fill="none" xmlns="http://www.w3.org/2000/svg">
<path d="M23.8817 0C10.7094 0 0 10.7094 0 23.8817C0 37.0539 10.7094 47.7633 23.8817 47.7633C37.0539 47.7633 47.7633 37.0539 47.7633 23.8817C47.7633 10.7094 37.0539 0 23.8817 0ZM36.886 36.1583C28.7326 32.0723 18.8721 31.9044 10.5229 35.7758C7.69623 32.6134 5.97041 28.4527 5.97041 23.8817C5.97041 14.0025 14.0025 5.97041 23.8817 5.97041C33.7608 5.97041 41.7929 14.0025 41.7929 23.8817C41.7929 28.63 39.9178 32.9492 36.886 36.1583Z" fill="#9B0034"/>
<path d="M56.8101 0.00933838C51.8401 0.00933838 47.8101 4.05015 47.8101 9.00933C47.8101 13.9685 51.8509 18.0093 56.8101 18.0093C61.7692 18.0093 65.8101 13.9685 65.8101 9.00933C65.8101 4.05015 61.7692 0.00933838 56.8101 0.00933838ZM61.3047 10.1438H57.9229V13.5255H55.6756V10.1438H52.2938V7.89649H55.6756V4.51474H57.9229V7.89649H61.3047V10.1438Z" fill="#9B0034"/>
<path d="M30.2158 14.5622C33.7141 18.0605 33.7141 23.7324 30.2158 27.2307C26.7175 30.729 21.0456 30.729 17.5473 27.2307C14.049 23.7324 14.049 18.0605 17.5473 14.5622C21.0456 11.0639 26.7175 11.0639 30.2158 14.5622Z" fill="#9B0034"/>
</svg>
